PathFileType	4	(X/Y/Z)	D:\TRACE\spotREDO_2-26-24\spot_justBody_Motion_2_8-platform.trc
DataRate	CameraRate	NumFrames	NumMarkers	Units	OrigDataRate	OrigDataStartFrame	OrigNumFrames
100.00	100.00	      48	5	mm	100.00	2626	      7000
Frame#	Time	Left_Front			Right_Front			Left_Aft			Right_Aft			Post			
		X1	Y1	Z1	X2	Y2	Z2	X3	Y3	Z3	X4	Y4	Z4	X5	Y5	Z5	

2626	26.250	-709.56793	15.45814	-570.30896	705.48468	21.53151	-486.00870	-780.31995	-16.22003	647.99750	789.77448	-8.62880	651.70825	0.06623	655.63623	-956.26996	
2627	26.260	-710.44086	14.26877	-570.72485	704.52075	20.60211	-486.11603	-781.47058	-14.76842	647.71594	788.62689	-7.37699	651.38843	-0.82594	653.63135	-957.61292	
2628	26.270	-711.35718	12.92441	-571.11804	703.23871	19.51302	-486.65787	-782.57336	-13.48247	647.41626	787.63403	-6.57028	651.09766	-2.11138	651.57062	-959.74963	
2629	26.280	-712.57269	11.54806	-571.38031	702.22534	18.35617	-486.73456	-783.85236	-12.24109	647.10034	786.54297	-4.77446	650.95709	-3.18722	649.64319	-961.43671	
2630	26.290	-713.88007	10.71807	-571.84680	701.19501	17.41593	-487.17285	-785.06073	-10.95557	646.89307	785.41425	-3.45919	650.67041	-4.13635	647.43420	-963.27557	
2631	26.300	-714.73523	9.27449	-571.99518	699.62030	16.35715	-487.72272	-786.23260	-9.45572	646.41687	784.15106	-2.16394	650.27783	-5.59800	645.50745	-965.07959	
2632	26.310	-715.91968	8.11504	-572.47522	698.86346	15.14473	-487.90335	-787.26917	-8.41182	646.22980	782.92065	-1.14511	649.85699	-6.46421	643.29639	-966.70142	
2633	26.320	-717.03375	6.90491	-572.98242	697.98950	13.99878	-488.14563	-788.31323	-6.98282	646.01758	782.04199	0.29887	649.46191	-7.06948	641.27142	-968.10382	
2634	26.330	-718.19635	5.53749	-573.36578	696.47919	13.34378	-488.76010	-789.36859	-5.75089	645.59210	780.90820	1.42507	648.84607	-8.76408	639.34174	-970.00336	
2635	26.340	-719.28748	4.44898	-573.49347	695.62238	11.84532	-488.86639	-790.58844	-4.39773	645.26526	779.70520	2.82486	648.96094	-9.76105	637.06232	-971.63232	
2636	26.350	-720.24615	2.99240	-573.87561	694.80670	10.86445	-489.25449	-791.48907	-2.85687	644.90680	778.49731	4.08527	648.55664	-10.88484	635.10675	-973.14349	
2637	26.360	-721.41333	1.63273	-574.24036	693.54926	9.60864	-489.59357	-792.55347	-1.77233	644.52301	777.67798	5.61889	648.27771	-11.69104	632.80359	-974.66266	
2638	26.370	-722.66370	0.73784	-574.62891	692.37006	8.65132	-489.99765	-793.75012	-0.58145	644.27063	776.23633	6.65956	647.84961	-12.70826	630.72876	-976.29016	
2639	26.380	-723.59418	-0.61704	-575.05280	691.58759	7.64766	-490.42398	-794.86871	0.97012	643.80823	775.25470	7.83399	647.44006	-13.98261	628.63489	-978.02643	
2640	26.390	-724.47137	-1.84662	-575.32971	690.31311	6.26778	-490.49506	-795.92828	2.03458	643.63721	774.43756	9.52485	647.39490	-14.86865	626.57111	-979.75513	
2641	26.400	-725.53534	-3.20674	-575.56299	689.34033	5.60731	-491.05151	-797.01782	3.54438	643.21893	773.23303	10.82928	647.03888	-16.13345	624.34180	-981.48193	
2642	26.410	-726.61340	-4.45648	-575.94397	688.30963	4.09881	-491.22092	-797.97015	4.69346	642.89490	772.20441	12.11738	646.54584	-16.87355	622.29633	-983.37189	
2643	26.420	-727.85059	-5.65526	-576.38556	687.38983	3.26155	-491.77814	-798.85815	5.92771	642.58167	771.74402	12.75087	645.98584	-17.88021	620.05945	-984.83563	
2644	26.430	-728.52618	-7.11737	-576.56366	686.40692	1.87149	-491.88791	-799.87976	7.40150	642.12921	770.57318	14.73239	645.97205	-18.75845	617.97015	-986.72870	
2645	26.440	-729.47253	-8.25012	-576.90497	685.47339	1.11805	-492.14023	-800.86194	8.62772	641.79669	769.65875	15.88276	645.52258	-19.92852	615.77112	-988.17255	
2646	26.450	-730.29163	-9.55416	-577.14435	684.30371	0.04040	-492.79340	-801.82721	9.81527	641.44366	768.42059	17.06508	645.10992	-20.91468	613.67255	-990.11603	
2647	26.460	-731.30896	-10.61326	-577.50183	683.44696	-1.38135	-492.79105	-802.85992	11.43187	641.12811	767.61603	18.14634	644.50775	-21.83079	611.57391	-991.53247	
2648	26.470	-732.47015	-11.91716	-577.73602	682.72803	-2.32151	-493.13666	-803.70026	12.33825	640.87213	766.53217	19.61899	644.29700	-22.66922	609.49127	-993.05774	
2649	26.480	-733.21033	-13.32379	-578.23254	681.63568	-3.45994	-493.40854	-804.48041	13.96674	640.42773	765.50006	20.94477	644.22083	-23.40120	607.35114	-994.59113	
2650	26.490	-734.16394	-14.39176	-578.43359	680.62512	-4.24433	-494.07159	-805.35583	14.85933	640.15051	764.82874	22.34247	643.80054	-24.58331	605.32837	-995.93103	
2651	26.500	-735.04407	-15.72208	-578.66010	680.08057	-5.79680	-494.05463	-806.58673	16.14911	639.69873	764.14105	23.59570	643.39642	-25.08507	603.21619	-997.56720	
2652	26.510	-735.88068	-16.98098	-578.95105	679.09723	-6.59936	-494.32898	-807.39398	17.60057	639.30768	763.15295	24.64999	642.90704	-26.19237	601.23303	-998.85559	
2653	26.520	-736.56464	-18.17756	-579.10992	678.05988	-7.70355	-494.91214	-808.20068	18.75422	639.03668	762.22577	25.96147	642.79883	-26.85097	599.06793	-1000.50928	
2654	26.530	-737.31110	-19.54947	-579.60504	677.60297	-8.75196	-494.97418	-808.90204	20.09217	638.61597	761.28076	27.39912	642.43945	-27.55408	596.98590	-1002.09546	
2655	26.540	-738.26575	-20.55000	-579.95557	676.78027	-9.76520	-495.01477	-809.60614	21.21403	638.34552	760.47479	28.49143	641.99329	-28.41564	595.01984	-1003.71228	
2656	26.550	-738.95483	-21.68639	-580.13983	676.10602	-10.81013	-495.40002	-810.58966	22.57787	638.02655	759.76801	29.63779	641.62732	-28.80304	592.82941	-1004.95691	
2657	26.560	-739.82288	-23.00226	-580.41797	675.11047	-11.64906	-495.89682	-811.16815	23.61800	637.68420	759.05896	30.59893	640.94330	-30.00271	590.87170	-1006.87714	
2658	26.570	-740.40302	-24.02756	-580.55908	674.46051	-13.01505	-496.01886	-811.93231	24.82757	637.25177	758.28992	32.18871	641.03479	-30.74083	588.64648	-1008.58881	
2659	26.580	-741.06396	-25.42427	-580.85614	673.93298	-13.90084	-496.23215	-812.76459	26.02711	636.90436	757.61298	33.19054	640.67249	-31.27721	586.76062	-1009.75104	
2660	26.590	-741.73322	-26.49481	-581.14282	673.34973	-14.73390	-496.67068	-813.35571	27.16762	636.50061	757.14502	34.49287	640.27283	-31.91043	584.73877	-1011.31122	
2661	26.600	-742.33630	-27.42562	-581.28259	672.47900	-15.80085	-496.81766	-813.93909	28.36015	636.26965	756.51154	35.75082	639.70227	-32.40902	582.82281	-1012.44574	
2662	26.610	-743.03113	-28.84175	-581.61469	671.76294	-16.73046	-497.15244	-814.58606	29.44283	635.72723	755.83936	36.62743	639.74536	-33.16618	580.79285	-1013.73999	
2663	26.620	-743.62030	-29.66225	-581.88257	671.56927	-17.83373	-497.26804	-815.05035	30.53380	635.52777	755.25940	37.64372	639.25787	-33.41038	578.87915	-1015.21277	
2664	26.630	-744.09161	-30.98722	-582.02667	670.94910	-18.80413	-497.56201	-815.58630	31.82646	635.35297	754.61206	39.00638	638.92621	-34.24303	577.08026	-1016.21783	
2665	26.640	-744.46619	-32.04142	-582.28625	670.58026	-19.80665	-497.68826	-816.12335	32.86647	634.89203	754.30286	40.08220	638.57324	-34.56722	575.24921	-1017.71332	
2666	26.650	-744.91046	-33.07330	-582.60028	669.84106	-20.62311	-498.01620	-816.71637	34.04167	634.47736	753.63605	40.77075	637.92603	-34.90052	573.40167	-1018.88403	
2667	26.660	-745.23035	-34.24959	-582.67377	669.48370	-21.70548	-498.31552	-816.95612	35.06528	633.96893	753.27893	42.29537	637.89014	-35.48356	571.56885	-1020.26569	
2668	26.670	-745.69159	-35.18611	-582.89648	669.04279	-22.49663	-498.49066	-817.18652	35.88832	633.80432	753.08636	43.28630	637.63818	-36.03125	569.80817	-1021.78827	
2669	26.680	-746.04285	-36.23552	-583.15784	668.71906	-23.45492	-498.77811	-817.83582	37.27731	633.40051	752.67609	44.25949	637.26093	-35.74319	567.88806	-1022.54218	
2670	26.690	-746.19305	-37.37173	-583.37909	668.45715	-24.36586	-498.89056	-818.06592	38.06284	633.05450	752.24603	45.06396	636.87958	-36.38965	566.01080	-1024.37732	
2671	26.700	-746.64630	-38.20134	-583.62329	668.08856	-24.93776	-499.21863	-818.44843	39.59424	632.54822	752.16168	46.13769	636.31476	-36.84861	564.41998	-1025.33557	
2672	26.710	-746.72333	-39.33148	-583.73608	667.98657	-26.18408	-499.28098	-818.48370	40.18383	632.50500	751.97559	47.36856	636.25299	-37.04839	562.69409	-1026.78674	
2673	26.720	-746.93134	-40.29307	-583.91669	667.96039	-26.97582	-499.53165	-818.53217	40.82446	632.24756	751.66711	48.27977	636.04065	-36.89408	560.98114	-1027.60693	
